<svg xmlns="http://www.w3.org/2000/svg" width="1200" height="630" viewBox="0 0 1200 630" role="img" aria-labelledby="t"><title id="t">Benchmark Heaven — the most complete collection of AI model benchmarks, and the only place that shows what each model really costs you.</title><rect width="1200" height="630" fill="#0e131b"/><g transform="translate(64 52) scale(1.1)"><defs><linearGradient id="bhCloudOG" gradientUnits="userSpaceOnUse" x1="12" y1="56" x2="52" y2="24"><stop stop-color="#2a68ff"/><stop offset="1" stop-color="#5ae6ff"/></linearGradient><clipPath id="bhCutOG"><rect x="0" y="0" width="64" height="55.5" rx="0"/></clipPath></defs><g stroke="#ffd95c" stroke-width="1.8" stroke-linecap="round"><path d="M19.1 26L12.8 21.5"/><path d="M22.8 23L17.7 16.8"/><path d="M27.3 20.9L24.3 13.3"/><path d="M32 20.1L32 8.5"/><path d="M36.8 20.9L39.7 13.3"/><path d="M41.2 23L46.3 16.8"/><path d="M44.9 26L51.2 21.5"/></g><g clip-path="url(#bhCutOG)" fill="url(#bhCloudOG)"><circle cx="32" cy="38.6" r="16.2"/><circle cx="14.1" cy="45.3" r="11.3"/><circle cx="49.9" cy="45.3" r="11.3"/><rect x="14.1" y="38.6" width="35.8" height="16.9"/></g><g fill="#ffffff"><rect x="33.9" y="33.8" width="7.7" height="1.6" rx="0.6"/><rect x="31.8" y="35.9" width="8.8" height="1.4" rx="0.6"/><rect x="29.2" y="38.1" width="10.6" height="1.6" rx="0.6"/><rect x="26.2" y="40.5" width="12.5" height="2.3" rx="0.6"/><rect x="22.5" y="43.6" width="14.9" height="2.9" rx="0.6"/><rect x="18.3" y="47.2" width="17.3" height="3.3" rx="0.6"/><rect x="13.8" y="51.5" width="19.8" height="4" rx="0.6"/></g></g><text x="150" y="102" fill="#edf2f8" font-family="Helvetica,Arial,sans-serif" font-size="34" font-weight="700">Benchmark <tspan fill="#5ae6ff">Heaven</tspan></text><text x="64" y="250" fill="#edf2f8" font-family="Georgia,serif" font-size="46" letter-spacing="-1.5">The most complete collection of AI model benchmarks.</text><text x="64" y="308" fill="#67e0c1" font-family="Georgia,serif" font-size="46" letter-spacing="-1.5">And the only place that shows</text><text x="64" y="366" fill="#67e0c1" font-family="Georgia,serif" font-size="46" letter-spacing="-1.5">what each model really costs you.</text><text x="68" y="430" fill="#adb9ca" font-family="Helvetica,Arial,sans-serif" font-size="25">Benchmarks with their source and date · adjusted cost per task, not price per million tokens</text><path d="M64 508h600" stroke="#394657"/><text x="68" y="560" fill="#6caeff" font-family="Helvetica,Arial,sans-serif" font-size="23">benchmarkheaven.com</text></svg>
